<svg width="18" height="18" viewBox="0 0 18 18" fill="none" xmlns="http://www.w3.org/2000/svg">
<path d="M9.37652 0.337402C7.67417 0.337402 6.01005 0.85055 4.5946 1.81195C3.17915 2.77336 2.07594 4.13984 1.42448 5.7386C0.773017 7.33736 0.602565 9.09658 0.934677 10.7938C1.26679 12.491 2.08655 14.0501 3.29029 15.2737C4.49403 16.4973 6.0277 17.3306 7.69734 17.6682C9.36698 18.0058 11.0976 17.8326 12.6704 17.1703C14.2431 16.5081 15.5874 15.3867 16.5332 13.9478C17.479 12.509 17.9838 10.8174 17.9838 9.08688C17.9838 6.76637 17.0769 4.54091 15.4628 2.90006C13.8486 1.25922 11.6593 0.337402 9.37652 0.337402V0.337402ZM9.1886 3.01912H11.042C11.0799 3.01917 11.1173 3.02812 11.1513 3.04528C11.1852 3.06245 11.2148 3.08735 11.2377 3.11806C11.2606 3.14876 11.2763 3.18443 11.2834 3.22229C11.2905 3.26014 11.2889 3.29916 11.2787 3.33629L9.82267 8.38036L11.1891 7.95601L10.8964 8.96584L9.51639 9.37415L8.62124 12.4467H13.4097C13.4477 12.4469 13.4851 12.456 13.519 12.4734C13.5529 12.4907 13.5824 12.5158 13.6052 12.5466C13.6279 12.5775 13.6434 12.6133 13.6503 12.6512C13.6572 12.6892 13.6554 12.7282 13.645 12.7653L13.2275 14.2236C13.2076 14.2929 13.166 14.3539 13.1091 14.3972C13.0522 14.4406 12.9831 14.4641 12.9119 14.4642H5.59867L6.83452 10.2192L5.46741 10.6421L5.76866 9.64976L7.13864 9.22687L8.87587 3.26264C8.89492 3.1929 8.93584 3.13139 8.99241 3.08743C9.04898 3.04348 9.11812 3.01949 9.18932 3.01912H9.1886Z" fill="#647AA8"/>
</svg>
